<?xml version="1.0" encoding="UTF-8" ?>
<!DOCTYPE svg PUBLIC "-//W3C//DTD SVG 1.1//EN" "http://www.w3.org/Graphics/SVG/1.1/DTD/svg11.dtd">
<svg width="719pt" height="719pt" viewBox="0 0 719 719" version="1.1" xmlns="http://www.w3.org/2000/svg">
<g id="#ffffffff">
</g>
<g id="#ff4200ff">
<path fill="#ff4200" opacity="1.00" d=" M 239.16 30.22 C 275.28 18.26 312.89 10.18 350.94 8.18 C 472.37 8.07 593.81 8.18 715.24 8.13 C 715.65 31.41 715.64 54.71 715.92 77.99 C 716.73 184.33 717.70 290.67 718.47 397.00 C 716.69 444.44 705.58 491.80 684.16 534.28 C 668.16 566.15 646.45 595.06 620.74 619.74 C 599.25 640.44 575.06 658.25 549.30 673.27 C 514.03 693.64 475.99 709.38 436.38 719.00 L 117.24 719.00 C 117.24 681.99 117.27 644.98 117.22 607.97 C 208.46 607.66 299.71 608.04 390.95 607.78 C 411.52 605.32 431.77 600.23 451.28 593.28 C 485.79 580.91 517.64 560.54 542.23 533.23 C 566.96 505.98 584.38 472.51 594.28 437.17 C 598.57 421.45 602.03 405.35 602.69 389.03 C 602.15 299.63 601.67 210.24 601.08 120.85 C 512.06 120.71 423.03 120.85 334.01 120.77 C 331.32 120.77 328.64 120.94 325.98 121.29 C 295.74 125.38 265.87 133.62 238.60 147.49 C 207.86 162.95 180.91 185.84 160.75 213.73 C 140.23 242.29 126.07 275.49 119.90 310.12 C 119.23 313.70 118.79 317.34 118.80 320.99 C 118.84 363.70 118.80 406.41 118.83 449.11 C 80.22 449.31 41.61 449.21 3.00 449.16 C 3.52 415.78 4.03 382.41 4.63 349.03 C 6.02 315.37 10.78 281.74 20.29 249.38 C 34.16 200.98 59.25 155.58 94.28 119.28 C 133.89 77.74 185.02 48.43 239.16 30.22 Z" />
<path fill="#ff4200" opacity="1.00" d=" M 269.45 279.40 C 290.23 261.98 316.89 251.71 344.01 250.96 C 350.68 250.60 357.32 251.36 363.97 251.65 C 400.81 251.72 437.66 251.59 474.50 251.71 C 473.70 288.80 471.72 325.88 470.86 362.97 C 474.16 398.62 461.04 435.37 435.63 460.63 C 411.68 485.07 377.16 498.59 342.99 496.96 C 320.29 496.12 297.92 488.64 279.16 475.88 C 262.15 464.38 248.14 448.53 238.74 430.28 C 225.82 405.52 222.04 376.24 227.70 348.93 C 233.15 321.89 248.27 297.01 269.45 279.40 Z" />
</g>
</svg>
